<?xml version="1.0" encoding="UTF-8"?>
<svg version="1.1" viewBox="0 0 1600 1600" width="1280" height="1280" xmlns="http://www.w3.org/2000/svg">
<path transform="translate(766 14.1)" d="m0 0c2.53 2.22 4.95 4.51 7.34 6.89 0.975 0.957 0.975 0.957 1.97 1.93 10.7 11.3 15 26.8 15 42.1-1.14 18.6-9.66 33.4-23 46.1-1.72 1.65-3.21 3.31-4.68 5.18-2.08 2.47-4.23 4.36-6.74 6.38-2.36 2.06-4.3 4.43-6.32 6.81-2.38 2.72-4.85 5.34-7.33 7.97-5.96 6.31-11.6 12.7-16.9 19.6-1.27 1.59-2.54 3.18-3.81 4.76-41.8 52.6-71.2 113-89.2 177-0.32 1.14-0.639 2.28-0.968 3.46-3.86 14-6.84 28.1-9.28 42.4-0.179 1.02-0.179 1.02-0.361 2.07-4.3 24.9-5.91 49.9-5.78 75.1 0.0171 3.35 0.00689 6.7-0.0103 10.1-0.107 24.6 1.75 49 5.71 73.3 0.104 0.647 0.207 1.29 0.314 1.96 2.15 13.4 5.05 26.6 8.37 39.7 0.382 1.56 0.382 1.56 0.772 3.14 6.61 26.8 16.2 52.6 27.2 77.9 0.427 0.985 0.855 1.97 1.3 2.99 6.65 15.2 14.3 29.7 22.7 44 1 1.73 2 3.46 3 5.18 7.04 12.1 14.8 23.5 23 34.8 0.532 0.733 1.06 1.47 1.61 2.22 6.33 8.68 12.9 17 20 25.2 1.47 1.7 2.92 3.41 4.38 5.12 9.5 11.2 19.4 21.9 29.7 32.3 1.19 1.2 1.19 1.2 2.41 2.43 4.81 4.79 9.74 9.35 14.9 13.8 1.08 0.949 2.17 1.9 3.25 2.85 8.29 7.23 16.9 14 25.7 20.6 1.93 1.45 3.85 2.9 5.78 4.35 22.9 17.2 47.8 31.8 73.4 44.7 1.92 0.97 3.83 1.95 5.73 2.94 25.5 13.2 53.4 23.2 81.2 30.5 0.874 0.236 1.75 0.472 2.65 0.715 82.4 22 169 22.9 251 2.29 1.12-0.276 2.24-0.551 3.4-0.835 32.3-8.02 63.9-19.5 93.4-35 2.65-1.38 5.32-2.73 7.99-4.07 13.9-7.04 27.2-14.6 40.2-23.1 0.885-0.569 0.885-0.569 1.79-1.15 3.45-2.22 6.84-4.52 10.2-6.85 0.633-0.436 1.27-0.873 1.92-1.32 18.4-12.7 35.6-26.6 52.1-41.7 0.914-0.821 1.83-1.64 2.77-2.49 7.19-6.5 14.1-13.3 21-20.1 0.875-0.862 1.75-1.72 2.65-2.61 5.19-5.18 9.95-10.5 14.5-16.3 11.9-14.8 25.4-28.6 45.1-31.6 19.6-1.86 35.9 1.4 51.7 13.7 7.53 6.9 13.4 15.9 17.3 25.3 0.588 1.32 0.588 1.32 1.19 2.67 2.73 7.18 3.08 13.7 3.02 21.3-0.00515 1.05-0.0103 2.11-0.0156 3.19-0.113 11.1-0.869 22-1.82 33.1-0.0867 1.04-0.173 2.08-0.263 3.15-1.88 22.3-4.68 44.5-8.11 66.6-0.104 0.676-0.208 1.35-0.316 2.05-13.3 85.7-41.2 171-87.2 255-1.57 2.79-3.12 5.58-4.67 8.38-21.6 38.8-46.9 75.8-74.8 110-1.04 1.29-1.04 1.29-2.11 2.61-2.29 2.81-4.58 5.6-6.89 8.39-0.833 1.01-1.67 2.02-2.52 3.06-5.64 6.77-11.5 13.3-17.6 19.7-2.98 3.16-5.91 6.33-8.73 9.62-3.15 3.67-6.57 7.02-10 10.4-1.92 1.95-3.72 3.94-5.49 6.02-6.59 7.66-13.9 14.8-21.6 21.4-2.17 1.88-4.28 3.82-6.38 5.78-5.21 4.84-10.6 9.43-16.1 13.9-2.56 2.11-5.01 4.3-7.45 6.55-5.5 5-11.3 9.54-17.2 14.1-2.09 1.62-4.17 3.26-6.25 4.9-45.5 35.8-95.2 66.5-148 91.2-3.16 1.5-6.31 3.02-9.46 4.55-74.4 35.7-156 57.4-396 70.9-0.685-0.0533-1.37-0.107-2.08-0.161-57.5-4.48-115-13.9-170-31.2-2.11-0.658-4.22-1.31-6.33-1.96-89.2-27.6-173-71-254-133-1.14-0.879-2.28-1.76-3.41-2.64-7.81-6.06-15.4-12.4-22.8-18.8-1.77-1.53-3.55-3.05-5.33-4.56-7.06-6-14-12.1-20.8-18.4-1.22-1.12-2.45-2.22-3.7-3.31-7.49-6.61-14.5-13.6-21.6-20.7-2.08-2.08-4.16-4.16-6.24-6.23-1.34-1.35-2.69-2.69-4.03-4.04-0.916-0.913-0.916-0.913-1.85-1.84-3.73-3.75-7.28-7.62-10.7-11.6-2.08-2.41-4.24-4.74-6.41-7.08-4.07-4.46-7.93-9.05-11.7-13.8-2.7-3.3-5.49-6.52-8.28-9.75-5.48-6.35-10.7-12.9-15.8-19.5-1.23-1.59-2.47-3.17-3.72-4.74-10.8-13.8-20.7-28.3-30.3-42.9-1.43-2.18-2.88-4.35-4.32-6.52-8.51-12.9-16.3-26.1-24-39.5l-1.75-3.05c-6.32-11-12.5-22-18-33.4-1.21-2.5-2.45-5-3.68-7.49-31-62.5-53-129-66.5-197-0.233-1.17-0.233-1.17-0.471-2.37-4.92-24.9-8.6-50-11.3-75.2-0.241-2.23-0.496-4.46-0.758-6.69-5.74-49.5-4.81-102 1.2-151 0.302-2.49 0.594-4.99 0.884-7.48 1.29-11 2.78-22 4.42-33 0.112-0.751 0.223-1.5 0.339-2.27 7.61-50.8 20.6-100 37.7-149 0.42-1.2 0.839-2.4 1.27-3.63 11.1-31.4 24.8-61.6 39.7-91.4l1.78-3.56c7.51-15 15.8-29.4 24.6-43.7 1.61-2.63 3.2-5.28 4.78-7.93 2.67-4.45 5.44-8.83 8.27-13.2 0.478-0.735 0.957-1.47 1.45-2.23 0.956-1.47 1.91-2.93 2.87-4.4 1.12-1.71 2.23-3.42 3.34-5.13 9.93-15.1 20.9-29.6 32-43.9 0.482-0.624 0.964-1.25 1.46-1.89 5.37-6.94 10.9-13.8 16.6-20.4 2.79-3.26 5.49-6.57 8.16-9.92 5.19-6.38 10.9-12.3 16.6-18.2 3.18-3.34 6.28-6.73 9.38-10.1 5.89-6.47 12-12.7 18.2-18.8 1.85-1.84 3.69-3.69 5.53-5.53 5.34-5.34 10.7-10.6 16.4-15.5 2.81-2.4 5.5-4.93 8.2-7.45 20.2-18.7 42.1-35.2 64.3-51.4 1.33-0.97 2.66-1.94 3.98-2.92 17.6-13 36.3-24.6 55.2-35.7l3.03-1.78c24-14.1 48.5-26.8 74-38.2 0.661-0.296 1.32-0.592 2-0.897 70.4-31.4 144-51.5 220-63.1 1.06-0.163 1.06-0.163 2.14-0.33 25.7-3.96 51.6-7.93 73.5 9.44zm-301 194-2.25 1.27c-11.9 6.76-23.3 14.2-34.7 21.7-0.872 0.573-1.74 1.15-2.64 1.74-15.4 10.1-30.8 20.4-44.9 32.2-2.38 1.99-4.8 3.92-7.24 5.84-9.12 7.28-17.9 14.9-26.6 22.8-1.74 1.58-3.48 3.16-5.22 4.73-7.5 6.8-14.7 13.8-21.9 21-1.84 1.85-3.69 3.69-5.53 5.53-5.35 5.35-10.6 10.7-15.5 16.4-1.85 2.16-3.8 4.22-5.76 6.29-5.73 6.07-11 12.4-16 19-2.39 3.1-4.9 6.09-7.45 9.07-20.3 24.3-38.2 51.6-53.9 79-1.38 2.4-2.78 4.79-4.18 7.18-16.4 28.3-30.3 57.6-42.1 88.1-0.248 0.636-0.495 1.27-0.751 1.93-24.9 64.1-40.3 132-44.2 201-0.0413 0.691-0.0826 1.38-0.125 2.09-0.776 13.2-1.08 26.3-1.06 39.5 2.72e-4 0.97 5.44e-4 1.94 8.24e-4 2.94 0.0237 18.6 0.75 37 2.19 55.5 0.0509 0.672 0.102 1.34 0.154 2.04 3.96 52.1 14.3 103 30.9 153 0.977 2.94 1.92 5.89 2.86 8.85 10.1 31.4 24.1 61.1 38.7 90.6 0.391 0.793 0.783 1.59 1.19 2.4 5.6 11.3 11.6 22.2 18.2 33 0.588 0.977 1.18 1.95 1.78 2.96 11.2 18.6 23.1 36.7 36.2 54 0.498 0.664 0.996 1.33 1.51 2.01 10.5 14 21.4 27.8 33.3 40.7 1.9 2.06 3.76 4.15 5.59 6.27 4.22 4.84 8.56 9.57 12.9 14.3 1.16 1.25 2.32 2.51 3.48 3.77 1.95 2.11 3.9 4.22 5.85 6.32 0.908 0.986 0.908 0.986 1.83 1.99 3.7 3.97 7.56 7.6 11.7 11.1 2.21 1.92 4.27 3.97 6.31 6.07 3.33 3.37 6.76 6.55 10.4 9.64 2.47 2.15 4.86 4.38 7.27 6.61 4.62 4.21 9.4 8.11 14.3 11.9 3.82 2.96 7.58 5.98 11.3 9.05 9.11 7.51 18.6 14.5 28.2 21.3 1.13 0.796 1.13 0.796 2.29 1.61 18.5 12.9 37.4 25 57.1 35.9 1.73 0.961 3.45 1.93 5.17 2.9 74.6 42.1 158 68.3 252 80.3 1.47 0.175 2.94 0.352 4.41 0.531 22.3 2.72 44.6 3.02 67 3.05 2.19 0.00281 4.38 0.00833 6.58 0.014 26.1 0.0489 52-1.04 77.9-4.14 0.716-0.0843 1.43-0.169 2.17-0.255 27.1-3.21 53.7-8.68 80.2-14.9 1.02-0.238 1.02-0.238 2.05-0.481 22.1-5.2 43.5-12 64.9-19.5 1.22-0.425 2.44-0.851 3.7-1.29 23.6-8.27 47-18 69.2-29.6 2.55-1.33 5.11-2.62 7.67-3.91 20.8-10.6 41.1-22.2 60.4-35.2 0.699-0.469 1.4-0.939 2.12-1.42 16.7-11.3 33.2-22.9 48.9-35.6 0.631-0.505 1.26-1.01 1.91-1.53 7.38-5.91 14.7-11.9 21.8-18.1 0.553-0.477 1.11-0.955 1.68-1.45 1.87-1.63 3.72-3.28 5.57-4.93 1.24-1.1 1.24-1.1 2.5-2.22 8.6-7.77 16.8-15.9 25-24.1 2.35-2.35 4.7-4.7 7.05-7.05 1.52-1.52 3.04-3.04 4.55-4.56 0.692-0.69 1.38-1.38 2.1-2.09 4.47-4.49 8.7-9.15 12.8-14 0.973-1.12 1.95-2.24 2.92-3.35 6.42-7.41 12.6-15 18.6-22.7 1.59-2.04 3.19-4.07 4.8-6.09 8.67-11 16.8-22.3 24.7-33.8 0.604-0.887 1.21-1.77 1.83-2.69 6.96-10.3 13.8-20.6 20-31.3 0.816-1.41 1.64-2.81 2.46-4.21 9.18-15.6 17.5-31.6 25.7-47.8 0.504-0.998 1.01-2 1.53-3.02 18.1-36.1 31.1-74.3 42.5-113-0.99-0.33-1.98-0.66-3-1-2.65 1.38-2.65 1.38-5.62 3.5-1.27 0.846-2.55 1.69-3.82 2.53-0.718 0.473-1.44 0.946-2.18 1.43-18.2 11.8-37.2 21.9-56.6 31.6-1.77 0.891-3.54 1.79-5.3 2.69-49.5 25.1-104 41.3-158 51.2-1.61 0.3-1.61 0.3-3.25 0.607-13.8 2.55-27.7 4.13-41.6 5.58-0.81 0.0849-1.62 0.17-2.46 0.257-22.1 2.29-44.1 2.8-66.3 2.81-0.699 4.42e-4 -1.4 8.84e-4 -2.12 0.00134-21.2 0.00703-42.2-0.412-63.3-3.25-1.41-0.18-2.83-0.359-4.24-0.536-63.5-8.03-124-25.2-183-51.5-1.31-0.59-1.31-0.59-2.65-1.19-33.8-15.3-66.2-34.4-96.3-55.8-0.708-0.497-1.42-0.994-2.15-1.51-16-11.3-30.9-23.7-45.6-36.6-1.67-1.44-3.36-2.86-5.07-4.27-10.2-8.44-19.5-17.7-28.8-27-2.67-2.68-5.34-5.34-8.02-8.01-15.4-15.4-15.4-15.4-21.7-23.5-1.7-2.18-3.51-4.21-5.39-6.23-6.21-6.92-11.7-14.4-17.2-21.9-0.587-0.783-1.17-1.57-1.78-2.37-51.8-69.3-88.5-147-122-426 0.0632-0.659 0.126-1.32 0.191-2 7.96-82.9 31.8-162 76.5-247 1.49-2.14 1.49-2.14 1.32-4.29-32.1 0-80.2 32.2-108 48z" fill="#000002"/>
</svg>
