<?xml version="1.0" encoding="UTF-8"?>
<svg version="1.1" viewBox="0 0 1600 1600" width="1280" height="1280" xmlns="http://www.w3.org/2000/svg">
<path transform="translate(915 487)" d="m0 0c2.11 0.778 4.22 1.53 6.34 2.28 25.1 8.94 48.1 22.4 69.9 37.5 0.646 0.446 1.29 0.892 1.96 1.35 20.6 14.3 40.1 31.5 56.3 50.7 1.2 1.39 2.43 2.74 3.69 4.07 53.8 57.2 81.9 144 80.3 221-2.59 71.3-23.9 137-66.3 195-0.81 1.12-1.62 2.24-2.43 3.36-4.24 5.78-8.71 11.2-13.6 16.5-1.64 1.79-3.21 3.61-4.75 5.5-2.29 2.73-4.7 5.2-7.25 7.69-0.598 0.608-1.2 1.22-1.81 1.84-3.93 3.99-7.96 7.75-12.2 11.4-1.99 1.78-3.82 3.65-5.67 5.58-5.3 5.34-11.3 9.77-17.3 14.2-0.722 0.529-1.44 1.06-2.19 1.6-17.1 12.4-34.9 23.5-54 32.5-1.7 0.812-3.38 1.66-5.06 2.51-36.8 18.2-76.9 26.6-118 30.1-0.762 0.0654-1.52 0.131-2.31 0.198-45.5 3.82-92.1-3.22-135-18.9-0.802-0.295-1.6-0.589-2.43-0.893-28.1-10.5-54.2-24.6-78.6-42.1-0.675-0.485-1.35-0.969-2.05-1.47-12-8.63-22.6-18-32.9-28.5-1.82-1.79-3.68-3.43-5.64-5.05-3.18-2.66-5.79-5.62-8.46-8.78-2.03-2.28-4.19-4.32-6.42-6.41-12-11.8-21.5-26.6-30.5-40.8-0.362-0.569-0.724-1.14-1.1-1.72-42.4-67.1-57.7-146-47.9-224 0.129-1.08 0.257-2.16 0.39-3.27 6.97-56.5 32.5-110 66.6-155 0.761-1.01 1.52-2.01 2.3-3.05 3.57-4.58 7.33-8.77 11.5-12.8 1.86-1.89 3.58-3.82 5.31-5.82 4.22-4.85 8.73-9.38 13.3-13.9 0.808-0.811 1.62-1.62 2.45-2.46 7.2-7.19 14.6-13.8 22.8-19.9 0.697-0.518 1.39-1.04 2.11-1.57 48.3-35.7 103-59.7 163-66.6 0.995-0.116 1.99-0.231 3.01-0.351 51.2-5.71 104 0.64 152 18.5zm-208 135c-1.37 0.731-2.75 1.46-4.12 2.19-20.8 11.2-42 28.2-56.9 46.8-0.767 0.953-1.53 1.91-2.32 2.89-34.3 43.2-48.4 96.4-43.2 151 0.582 4.76 1.47 9.42 2.54 14.1 0.199 0.895 0.397 1.79 0.602 2.71 7.93 34.8 23.2 65.1 47 91.7 1.29 1.45 2.57 2.92 3.85 4.39 27.7 31.6 68.8 51.6 110 59.5 1.23 0.239 1.23 0.239 2.49 0.483 15.4 2.79 30.9 2.4 46.5 2.2 1.94-0.00773 1.94-0.00773 3.91-0.0156 32.6-1.15 68.9-14.8 95.1-34 0.613-0.441 1.23-0.881 1.86-1.34 9.28-6.68 17.9-13.7 26.1-21.7 0.799-0.759 1.6-1.52 2.42-2.3 13.3-12.9 24.9-28.5 33.6-44.9 0.944-1.76 1.92-3.51 2.9-5.26 24.6-45.1 26.6-99.9 13-149-5.61-19-13.7-36.7-25-53-0.382-0.565-0.765-1.13-1.16-1.71-30.6-45.3-77.4-74.7-131-85.3-43.2-7.74-89.5-1.1-128 20z" fill="#000002"/>
<path transform="translate(1270 311)" d="m0 0c12 8.8 20.7 19.2 26 33.2 0.32 0.791 0.639 1.58 0.969 2.4 5.76 16.9 2.13 36-5.03 51.8-2.55 4.75-5.22 8.51-8.93 12.5-0.478 0.511-0.956 1.02-1.45 1.55-5.42 5.77-11 11.4-16.6 17-0.823 0.827-0.823 0.827-1.66 1.67-2.9 2.91-5.8 5.82-8.7 8.73-2.96 2.96-5.91 5.94-8.86 8.92-2.31 2.32-4.62 4.64-6.93 6.96-1.09 1.09-2.18 2.19-3.26 3.29-16.3 16.5-33.1 27.9-57.1 28.5-18.2-0.212-33.2-6.88-46.4-19.2-0.718-0.664-1.44-1.33-2.18-2.01-11.8-12-17-28.5-17.2-45 0.219-21.2 8.75-36.3 23.4-51 1.16-1.32 2.31-2.65 3.44-4 1.93-2.26 3.88-4.35 5.98-6.43 1.91-1.91 3.81-3.83 5.7-5.76 4.34-4.41 8.7-8.81 13.1-13.2 1.87-1.89 3.73-3.78 5.6-5.68 27-27.5 63-48.8 100-24.1z" fill="#000002"/>
<path transform="translate(407 313)" d="m0 0c7.74 6.1 14.8 13 21.8 19.9 0.756 0.747 1.51 1.49 2.29 2.26 0.695 0.699 1.39 1.4 2.11 2.12 0.935 0.938 0.935 0.938 1.89 1.9 1.34 1.6 1.34 1.6 1.34 3.6h2v2h2c1.31 1.34 1.31 1.34 2.88 3.27 3.08 3.62 6.33 6.99 9.73 10.3 0.505 0.495 1.01 0.99 1.53 1.5 2.09 2.05 4.19 4.1 6.3 6.13 14.6 14.1 26.5 30.5 26.9 51.6-0.0458 20-6.23 36.8-20.4 51.2-15.1 13.3-33 19.2-53 18-23.4-2.7-37.9-16.6-53.7-32.4-1.29-1.29-2.58-2.57-3.87-3.86-2.69-2.68-5.37-5.36-8.05-8.05-3.41-3.42-6.84-6.83-10.3-10.2-2.66-2.65-5.32-5.3-7.97-7.96-1.26-1.26-2.52-2.51-3.78-3.77-15.6-15.5-25.9-31.9-26.4-54.6 0.711-16.7 6.15-31.5 17.1-44.1 0.646-0.753 1.29-1.51 1.96-2.28 22.1-23.9 62.1-25.9 87.6-6.5z" fill="#000002"/>
<path transform="translate(460 1125)" d="m0 0c14.1 11.6 24.8 26.3 27.4 44.8 0.811 10.3 0.413 20.2-3 30-0.34 0.994-0.681 1.99-1.03 3.01-5.18 13.7-14.9 23.4-25.1 33.5-1.27 1.26-2.53 2.53-3.79 3.8-2.64 2.64-5.28 5.27-7.92 7.89-3.37 3.34-6.72 6.7-10.1 10.1-2.61 2.61-5.22 5.21-7.83 7.82-1.24 1.23-2.47 2.47-3.71 3.71-16.5 16.5-33.2 29.5-57.6 29.7-20.1-0.287-35.7-7.67-49.9-21.4-11.3-11.8-17.4-29.9-17.2-46 2.27-31.7 23.6-50.6 44.9-71.8 2.56-2.56 5.12-5.12 7.67-7.68 1.65-1.65 3.3-3.3 4.95-4.95 0.752-0.754 1.5-1.51 2.28-2.29 4.07-4.05 8.23-7.95 12.6-11.7 1.86-1.62 3.64-3.3 5.42-5 22.5-19.6 58.1-21.8 82-3.33z" fill="#000002"/>
<path transform="translate(1217 1125)" d="m0 0c7.6 6.03 14.4 12.8 21.1 19.7 1.62 1.64 3.23 3.28 4.85 4.92 0.997 1.01 1.99 2.02 2.98 3.03 2.55 2.61 2.55 2.61 5.6 4.54v2h2v2h2v2c1.32 0.66 2.64 1.32 4 2v2c0.593 0.27 1.19 0.54 1.8 0.818 14 7.49 28.7 27.5 34.2 42.2 0.315 0.813 0.629 1.63 0.953 2.46 5.72 18.1 2.63 36.9-5.83 53.4-9.18 15.7-22.4 25.5-39.6 31.3-17.7 4.4-35 2.68-51-5.86-10.7-6.68-19.6-16.1-28.5-25-1.31-1.31-2.63-2.62-3.95-3.93-2.74-2.73-5.47-5.46-8.2-8.2-3.48-3.49-6.98-6.96-10.5-10.4-2.71-2.7-5.42-5.4-8.12-8.11-1.28-1.28-2.57-2.57-3.86-3.85-8.34-8.29-16-16.1-20.2-27.4-0.387-1.03-0.773-2.07-1.17-3.13-5.57-17.1-4.55-34.8 2.86-51.2 9.18-17.5 23.5-29 42.2-35.2 19.2-5.08 40.2-2.1 56.3 9.85z" fill="#000002"/>
<path transform="translate(839 1279)" d="m0 0c8.91 6.93 15.2 14.8 20.4 24.7 0.489 0.91 0.489 0.91 0.987 1.84 6.07 12.3 6.14 25.5 6.06 38.9-5.2e-4 1.74 4.11e-6 3.49 0.00151 5.23-8.9e-5 3.63-0.0104 7.26-0.0286 10.9-0.0227 4.62-0.0232 9.25-0.0165 13.9 0.00336 3.59-0.00333 7.19-0.0131 10.8-0.00381 1.7-0.00502 3.41-0.00341 5.11 0.00337 21.4-3.86 40.2-18.9 56.4-14.5 13.6-32.3 20-52.2 19.4-17.3-1.18-33.5-9.27-45.4-21.9-10-12.4-16-26.8-16-42.7-0.00657-0.838-0.0131-1.68-0.0199-2.54-0.0197-2.77-0.0314-5.53-0.0414-8.3-0.00408-0.95-0.00815-1.9-0.0124-2.88-0.0208-5.03-0.0351-10.1-0.0445-15.1-0.011-5.17-0.0454-10.3-0.0852-15.5-0.0263-4-0.0345-8-0.0381-12-0.00484-1.9-0.0164-3.81-0.035-5.71-0.198-21.5 5.3-38.7 20.5-54.6 23.1-22 58.8-24.1 84.9-5.85z" fill="#000002"/>
<path transform="translate(1343 734)" d="m0 0c1.9-0.00203 3.81-0.00494 5.71-0.0087 3.97-0.0044 7.95 0.00193 11.9 0.016 5.06 0.0171 10.1 0.00724 15.2-0.0107 3.93-0.0109 7.86-0.00736 11.8 3.83e-4 1.87 0.00198 3.73-3.94e-4 5.6-0.00744 13.2-0.0388 25.1 0.813 37 6.91 0.672 0.341 1.34 0.682 2.03 1.03 15.5 8.29 26.3 23 32 39.5 4.89 18.2 2.23 36.3-6.77 52.7-9.46 16.2-24.5 25.9-42.4 30.7-9.6 1.91-19.2 1.74-29 1.75-1.66 0.00322-3.32 0.00658-4.99 0.0101-3.47 0.00596-6.95 0.00784-10.4 0.00725-4.42-1.01e-4 -8.84 0.0135-13.3 0.0308-3.43 0.0112-6.86 0.0131-10.3 0.0126-1.63 0.00117-3.26 0.00553-4.89 0.0133-22.2 0.0965-40.3-4.6-57-20.1-12.3-12.8-18.8-30.1-18.5-47.7 0.809-19.4 9.25-35.6 23-49 4.16-3.61 8.5-6.26 13.4-8.75 0.935-0.483 0.935-0.483 1.89-0.975 12.3-5.94 24.6-6.1 38-6.05z" fill="#000002"/>
<path transform="translate(822,137)" d="m0 0c0.892 0.371 0.892 0.371 1.8 0.75 18.8 7.98 31.4 21.3 39.2 40.2 3.29 10.9 3.43 21.5 3.36 32.7-5.2e-4 1.77 3.9e-6 3.54 0.00151 5.31-8.9e-5 3.68-0.0104 7.37-0.0286 11.1-0.0227 4.69-0.0232 9.39-0.0165 14.1 0.00336 3.65-0.00333 7.29-0.0131 10.9-0.00382 1.73-0.00502 3.46-0.00341 5.19 0.00301 19.4-2.88 36.1-15.3 51.7-0.63 0.857-0.63 0.857-1.27 1.73-10 13.1-27.4 19.9-43.2 22-19.7 1.44-36.9-4.49-51.9-17.3-12-11.2-20.1-27.2-20.8-43.8-0.15-5.15-0.135-10.3-0.116-15.5-0.00203-1.91-0.00494-3.81-0.0087-5.72-0.0044-3.98 0.00193-7.96 0.016-11.9 0.0171-5.07 0.00723-10.1-0.0107-15.2-0.0109-3.93-0.00737-7.86 3.83e-4 -11.8 0.00199-1.87-4.01e-4 -3.74-0.00744-5.61-0.0583-19.8 4.14-37.3 18.3-51.9 17.6-17.5 46.1-27.3 70.1-17z" fill="#000002"/>
<path transform="translate(210 734)" d="m0 0c1.9-0.00203 3.81-0.00494 5.71-0.0087 3.97-0.0044 7.95 0.00193 11.9 0.016 5.06 0.0171 10.1 0.00724 15.2-0.0107 3.93-0.0109 7.86-0.00736 11.8 3.83e-4 1.87 0.00198 3.73-3.94e-4 5.6-0.00744 21.1-0.0623 38.3 4.35 54 19.4 12.3 12.6 18.7 29.1 19.4 46.5-0.643 18.8-7.83 35.8-21 49.1-18.1 15.7-38.4 17.5-61.2 17.5-1.61 0.00322-3.23 0.00659-4.84 0.0101-3.37 0.00595-6.74 0.00784-10.1 0.00725-4.28-1.02e-4 -8.57 0.0136-12.9 0.0308-3.33 0.0112-6.66 0.0131-9.99 0.0126-1.58 0.00117-3.16 0.00552-4.73 0.0133-22.2 0.0996-40.3-4.65-56.9-20-14.8-15.8-18.4-34-17.8-54.7 0.24-4.93 1.18-9.01 3.12-13.5 0.248-0.594 0.495-1.19 0.75-1.8 7.41-17.4 19.3-29.8 36.6-37.8 11.9-4.38 22.9-4.81 35.5-4.76z" fill="#000002"/>
</svg>
